<svg xmlns="http://www.w3.org/2000/svg" viewBox="0 0 24 24" fill="none" stroke="currentColor" stroke-width="2" stroke-linecap="round" stroke-linejoin="round">
  <!-- Wheat sheaf with prohibition slash (0% Grains) -->
  <path d="M7 20l4-16m2 16l4-16"/>
  <path d="M6 8c2-2 5-2 6 0-1 2-4 2-6 0z"/>
  <path d="M12 8c2-2 5-2 6 0-1 2-4 2-6 0z"/>
  <path d="M6 14c2-2 5-2 6 0-1 2-4 2-6 0z"/>
  <path d="M12 14c2-2 5-2 6 0-1 2-4 2-6 0z"/>
  <line x1="3" y1="3" x2="21" y2="21" stroke="#EF4444" stroke-width="2.5"/>
</svg>
